<svg xmlns="http://www.w3.org/2000/svg" xmlns:xlink="http://www.w3.org/1999/xlink" width="397" viewBox="3 24 397 114" height="114" preserveAspectRatio="xMidYMid meet" version="1.0"><defs><g/><clipPath id="33f6b17880"><rect x="0" width="388" y="0" height="119"/></clipPath><clipPath id="a0b75a95bd"><path d="M 5.136719 34.191406 L 79.171875 34.191406 L 79.171875 110.472656 L 5.136719 110.472656 Z M 5.136719 34.191406 " clip-rule="nonzero"/></clipPath><clipPath id="395f667ef4"><path d="M 0.535156 2 L 8 2 L 8 13 L 0.535156 13 Z M 0.535156 2 " clip-rule="nonzero"/></clipPath><clipPath id="debac301e5"><rect x="0" width="320" y="0" height="18"/></clipPath></defs><g transform="matrix(1, 0, 0, 1, 12, 26)"><g clip-path="url(#33f6b17880)"><g fill="#ffffff" fill-opacity="1"><g transform="translate(1.12668, 85.022568)"><g><path d="M 76.671875 0 L 52.1875 0 L 23.453125 -33.09375 L 23.453125 0 L 5.671875 0 L 5.671875 -78 L 23.453125 -78 L 23.453125 -46.140625 L 50.203125 -78 L 71.765625 -78 L 40.375 -41.03125 Z M 76.671875 0 "/></g></g></g><g fill="#ffffff" fill-opacity="1"><g transform="translate(68.152553, 85.022568)"><g><path d="M 10.25 -5.765625 C 4.863281 -10.554688 2.171875 -16.703125 2.171875 -24.203125 C 2.171875 -31.703125 4.972656 -37.863281 10.578125 -42.6875 C 16.191406 -47.507812 23.128906 -49.921875 31.390625 -49.921875 C 39.523438 -49.921875 46.378906 -47.492188 51.953125 -42.640625 C 57.535156 -37.785156 60.328125 -31.640625 60.328125 -24.203125 C 60.328125 -16.765625 57.597656 -10.632812 52.140625 -5.8125 C 46.691406 -0.988281 39.773438 1.421875 31.390625 1.421875 C 22.691406 1.421875 15.644531 -0.972656 10.25 -5.765625 Z M 23.203125 -32.421875 C 21.035156 -30.285156 19.953125 -27.546875 19.953125 -24.203125 C 19.953125 -20.859375 20.988281 -18.128906 23.0625 -16.015625 C 25.144531 -13.910156 27.890625 -12.859375 31.296875 -12.859375 C 34.578125 -12.859375 37.269531 -13.925781 39.375 -16.0625 C 41.488281 -18.207031 42.546875 -20.921875 42.546875 -24.203125 C 42.546875 -27.546875 41.457031 -30.285156 39.28125 -32.421875 C 37.101562 -34.566406 34.441406 -35.640625 31.296875 -35.640625 C 28.078125 -35.640625 25.378906 -34.566406 23.203125 -32.421875 Z M 23.203125 -32.421875 "/></g></g></g><g fill="#ffffff" fill-opacity="1"><g transform="translate(123.266763, 85.022568)"><g><path d="M 8.984375 -6 C 4.441406 -10.945312 2.171875 -17.015625 2.171875 -24.203125 C 2.171875 -31.390625 4.441406 -37.472656 8.984375 -42.453125 C 13.523438 -47.429688 19.289062 -49.921875 26.28125 -49.921875 C 32.707031 -49.921875 38.003906 -47.90625 42.171875 -43.875 L 42.171875 -48.5 L 58.90625 -48.5 L 58.90625 0 L 42.359375 0 L 42.359375 -5.484375 L 42.171875 -5.484375 C 38.003906 -0.878906 32.707031 1.421875 26.28125 1.421875 C 19.289062 1.421875 13.523438 -1.050781 8.984375 -6 Z M 23.203125 -32.421875 C 21.035156 -30.285156 19.953125 -27.546875 19.953125 -24.203125 C 19.953125 -20.859375 20.988281 -18.128906 23.0625 -16.015625 C 25.144531 -13.910156 27.890625 -12.859375 31.296875 -12.859375 C 34.578125 -12.859375 37.269531 -13.925781 39.375 -16.0625 C 41.488281 -18.207031 42.546875 -20.921875 42.546875 -24.203125 C 42.546875 -27.546875 41.457031 -30.285156 39.28125 -32.421875 C 37.101562 -34.566406 34.441406 -35.640625 31.296875 -35.640625 C 28.078125 -35.640625 25.378906 -34.566406 23.203125 -32.421875 Z M 23.203125 -32.421875 "/></g></g></g><g fill="#ffffff" fill-opacity="1"><g transform="translate(180.460787, 85.022568)"><g><path d="M 31.484375 -36.21875 C 28.328125 -36.21875 25.613281 -35.050781 23.34375 -32.71875 C 21.082031 -30.382812 19.953125 -27.578125 19.953125 -24.296875 C 19.953125 -20.953125 21.082031 -18.113281 23.34375 -15.78125 C 25.613281 -13.457031 28.328125 -12.296875 31.484375 -12.296875 C 32.992188 -12.296875 34.425781 -12.484375 35.78125 -12.859375 C 37.132812 -13.234375 38.128906 -13.613281 38.765625 -14 L 39.609375 -14.5625 L 45.28125 -2.9375 C 44.84375 -2.613281 44.226562 -2.21875 43.4375 -1.75 C 42.65625 -1.28125 40.859375 -0.632812 38.046875 0.1875 C 35.242188 1.007812 32.238281 1.421875 29.03125 1.421875 C 21.90625 1.421875 15.644531 -1.082031 10.25 -6.09375 C 4.863281 -11.101562 2.171875 -17.109375 2.171875 -24.109375 C 2.171875 -31.171875 4.863281 -37.238281 10.25 -42.3125 C 15.644531 -47.382812 21.90625 -49.921875 29.03125 -49.921875 C 32.238281 -49.921875 35.195312 -49.539062 37.90625 -48.78125 C 40.625 -48.03125 42.550781 -47.273438 43.6875 -46.515625 L 45.28125 -45.375 L 39.609375 -33.9375 C 37.535156 -35.457031 34.828125 -36.21875 31.484375 -36.21875 Z M 31.484375 -36.21875 "/></g></g></g><g fill="#ffffff" fill-opacity="1"><g transform="translate(219.503706, 85.022568)"><g><path d="M 5.671875 0 L 5.671875 -81.3125 L 22.40625 -81.3125 L 22.40625 -43.390625 L 22.59375 -43.390625 C 26.945312 -47.742188 31.582031 -49.921875 36.5 -49.921875 C 38.894531 -49.921875 41.269531 -49.601562 43.625 -48.96875 C 45.988281 -48.34375 48.257812 -47.367188 50.4375 -46.046875 C 52.613281 -44.722656 54.378906 -42.847656 55.734375 -40.421875 C 57.085938 -37.992188 57.765625 -35.171875 57.765625 -31.953125 L 57.765625 0 L 41.03125 0 L 41.03125 -27.421875 C 41.03125 -29.941406 40.226562 -32.144531 38.625 -34.03125 C 37.019531 -35.925781 34.921875 -36.875 32.328125 -36.875 C 29.804688 -36.875 27.519531 -35.894531 25.46875 -33.9375 C 23.425781 -31.988281 22.40625 -29.816406 22.40625 -27.421875 L 22.40625 0 Z M 5.671875 0 "/></g></g></g><g fill="#ffffff" fill-opacity="1"><g transform="translate(274.617929, 85.022568)"><g><path d="M 7.28125 -75.53125 C 9.238281 -77.488281 11.570312 -78.46875 14.28125 -78.46875 C 16.988281 -78.46875 19.316406 -77.488281 21.265625 -75.53125 C 23.222656 -73.582031 24.203125 -71.253906 24.203125 -68.546875 C 24.203125 -65.835938 23.222656 -63.503906 21.265625 -61.546875 C 19.316406 -59.597656 16.988281 -58.625 14.28125 -58.625 C 11.570312 -58.625 9.238281 -59.597656 7.28125 -61.546875 C 5.320312 -63.503906 4.34375 -65.835938 4.34375 -68.546875 C 4.34375 -71.253906 5.320312 -73.582031 7.28125 -75.53125 Z M 5.671875 -48.5 L 5.671875 0 L 22.40625 0 L 22.40625 -48.5 Z M 5.671875 -48.5 "/></g></g></g><g fill="#ffffff" fill-opacity="1"><g transform="translate(295.793342, 85.022568)"><g><path d="M 8.515625 -48.5 L 8.515625 -58.8125 C 8.578125 -66.0625 10.273438 -71.859375 13.609375 -76.203125 C 16.953125 -80.554688 21.585938 -82.734375 27.515625 -82.734375 C 30.035156 -82.734375 32.445312 -82.367188 34.75 -81.640625 C 37.050781 -80.910156 38.703125 -80.171875 39.703125 -79.421875 L 41.3125 -78.375 L 35.453125 -66.5625 C 33.941406 -67.445312 32.269531 -67.890625 30.4375 -67.890625 C 28.363281 -67.890625 26.976562 -67.175781 26.28125 -65.75 C 25.59375 -64.332031 25.25 -61.859375 25.25 -58.328125 L 25.25 -48.5 L 36.40625 -48.5 L 36.40625 -35.734375 L 25.25 -35.734375 L 25.25 0 L 8.515625 0 L 8.515625 -35.734375 L 1.515625 -35.734375 L 1.515625 -48.5 Z M 8.515625 -48.5 "/></g></g></g><g fill="#ffffff" fill-opacity="1"><g transform="translate(323.869955, 85.022568)"><g><path d="M 42.453125 -48.5 L 61.734375 -48.5 L 23.640625 24.578125 L 4.34375 24.578125 L 21.078125 -7.5625 L -1.890625 -48.5 L 17.390625 -48.5 L 30.921875 -23.640625 Z M 42.453125 -48.5 "/></g></g></g></g></g><g clip-path="url(#a0b75a95bd)"><path fill="#88c057" d="M 79.492188 71.78125 L 68.523438 71.78125 C 49.753906 67.71875 45.578125 63.53125 41.515625 44.730469 L 41.515625 34.195312 L 40.128906 34.195312 L 40.128906 44.84375 C 36.074219 63.546875 31.878906 67.730469 13.144531 71.78125 L 5.144531 71.78125 L 5.144531 73.171875 L 13.144531 73.171875 C 31.878906 77.222656 36.074219 81.40625 40.128906 100.109375 L 40.128906 110.5625 L 41.515625 110.5625 L 41.515625 100.222656 C 45.578125 81.421875 49.753906 77.234375 68.523438 73.171875 L 79.492188 73.171875 Z M 79.492188 71.78125 " fill-opacity="1" fill-rule="nonzero"/></g><g transform="matrix(1, 0, 0, 1, 18, 117)"><g clip-path="url(#debac301e5)"><g clip-path="url(#395f667ef4)"><g fill="#88c057" fill-opacity="1"><g transform="translate(0.608864, 12.492247)"><g><path d="M 3.6875 0.265625 C 2.9375 0.265625 2.257812 0.0976562 1.65625 -0.234375 C 1.0625 -0.578125 0.582031 -1.066406 0.21875 -1.703125 L 1.6875 -2.9375 C 2.1875 -2.039062 2.847656 -1.59375 3.671875 -1.59375 C 4.035156 -1.59375 4.332031 -1.679688 4.5625 -1.859375 C 4.789062 -2.035156 4.90625 -2.269531 4.90625 -2.5625 C 4.90625 -2.832031 4.789062 -3.066406 4.5625 -3.265625 C 4.34375 -3.460938 3.945312 -3.6875 3.375 -3.9375 C 2.476562 -4.332031 1.820312 -4.769531 1.40625 -5.25 C 1 -5.738281 0.796875 -6.320312 0.796875 -7 C 0.796875 -7.425781 0.875 -7.816406 1.03125 -8.171875 C 1.1875 -8.523438 1.398438 -8.832031 1.671875 -9.09375 C 1.953125 -9.351562 2.285156 -9.550781 2.671875 -9.6875 C 3.054688 -9.820312 3.484375 -9.890625 3.953125 -9.890625 C 5.171875 -9.890625 6.207031 -9.363281 7.0625 -8.3125 L 5.65625 -7.046875 C 5.382812 -7.398438 5.113281 -7.660156 4.84375 -7.828125 C 4.570312 -8.003906 4.273438 -8.09375 3.953125 -8.09375 C 3.628906 -8.09375 3.375 -8.007812 3.1875 -7.84375 C 3 -7.6875 2.90625 -7.472656 2.90625 -7.203125 C 2.90625 -6.898438 3.03125 -6.648438 3.28125 -6.453125 C 3.53125 -6.265625 3.90625 -6.0625 4.40625 -5.84375 C 5.320312 -5.4375 5.984375 -4.984375 6.390625 -4.484375 C 6.804688 -3.992188 7.015625 -3.410156 7.015625 -2.734375 C 7.015625 -2.285156 6.929688 -1.878906 6.765625 -1.515625 C 6.609375 -1.148438 6.382812 -0.832031 6.09375 -0.5625 C 5.800781 -0.300781 5.445312 -0.0976562 5.03125 0.046875 C 4.625 0.191406 4.175781 0.265625 3.6875 0.265625 Z M 3.6875 0.265625 "/></g></g></g></g><g fill="#88c057" fill-opacity="1"><g transform="translate(12.514906, 12.492247)"><g><path d="M 1.078125 -9.6875 L 6.625 -9.6875 L 6.625 -7.71875 L 3.203125 -7.71875 L 3.203125 -5.9375 L 5.703125 -5.9375 L 5.703125 -3.953125 L 3.203125 -3.953125 L 3.203125 -1.984375 L 6.703125 -1.984375 L 6.703125 0 L 1.078125 0 Z M 1.078125 -9.6875 "/></g></g></g><g fill="#88c057" fill-opacity="1"><g transform="translate(24.276351, 12.492247)"><g><path d="M 1.078125 -9.875 L 2.171875 -9.875 L 6.15625 -4.609375 L 10.109375 -9.875 L 11.203125 -9.875 L 11.203125 0 L 9.09375 0 L 9.09375 -5.390625 L 6.546875 -2.046875 L 5.71875 -2.046875 L 3.203125 -5.375 L 3.203125 0 L 1.078125 0 Z M 1.078125 -9.875 "/></g></g></g><g fill="#88c057" fill-opacity="1"><g transform="translate(40.896162, 12.492247)"><g><path d="M 1.078125 -9.6875 L 4.015625 -9.6875 C 4.535156 -9.6875 5.015625 -9.601562 5.453125 -9.4375 C 5.898438 -9.28125 6.28125 -9.050781 6.59375 -8.75 C 6.914062 -8.457031 7.164062 -8.113281 7.34375 -7.71875 C 7.519531 -7.320312 7.609375 -6.882812 7.609375 -6.40625 C 7.609375 -5.9375 7.519531 -5.5 7.34375 -5.09375 C 7.164062 -4.695312 6.921875 -4.351562 6.609375 -4.0625 C 6.304688 -3.769531 5.9375 -3.539062 5.5 -3.375 C 5.0625 -3.21875 4.59375 -3.140625 4.09375 -3.140625 L 3.203125 -3.140625 L 3.203125 0 L 1.078125 0 Z M 4.015625 -5.125 C 4.460938 -5.125 4.820312 -5.234375 5.09375 -5.453125 C 5.363281 -5.679688 5.5 -6 5.5 -6.40625 C 5.5 -6.800781 5.363281 -7.117188 5.09375 -7.359375 C 4.820312 -7.597656 4.460938 -7.71875 4.015625 -7.71875 L 3.203125 -7.71875 L 3.203125 -5.125 Z M 4.015625 -5.125 "/></g></g></g><g fill="#88c057" fill-opacity="1"><g transform="translate(53.423955, 12.492247)"><g><path d="M 1.078125 -9.6875 L 3.203125 -9.6875 L 3.203125 -1.984375 L 6.546875 -1.984375 L 6.546875 0 L 1.078125 0 Z M 1.078125 -9.6875 "/></g></g></g><g fill="#88c057" fill-opacity="1"><g transform="translate(64.751621, 12.492247)"><g><path d="M 1.078125 -9.6875 L 3.203125 -9.6875 L 3.203125 0 L 1.078125 0 Z M 1.078125 -9.6875 "/></g></g></g><g fill="#88c057" fill-opacity="1"><g transform="translate(73.375369, 12.492247)"><g><path d="M 1.078125 -9.6875 L 6.546875 -9.6875 L 6.546875 -7.71875 L 3.203125 -7.71875 L 3.203125 -5.515625 L 5.625 -5.515625 L 5.625 -3.53125 L 3.203125 -3.53125 L 3.203125 0 L 1.078125 0 Z M 1.078125 -9.6875 "/></g></g></g><g fill="#88c057" fill-opacity="1"><g transform="translate(84.703035, 12.492247)"><g><path d="M 1.078125 -9.6875 L 3.203125 -9.6875 L 3.203125 0 L 1.078125 0 Z M 1.078125 -9.6875 "/></g></g></g><g fill="#88c057" fill-opacity="1"><g transform="translate(93.326783, 12.492247)"><g><path d="M 1.078125 -9.6875 L 3.203125 -9.6875 L 3.203125 -5.34375 L 6.203125 -9.6875 L 8.640625 -9.6875 L 5.375 -5.078125 L 8.828125 0 L 6.296875 0 L 3.203125 -4.59375 L 3.203125 0 L 1.078125 0 Z M 1.078125 -9.6875 "/></g></g></g><g fill="#88c057" fill-opacity="1"><g transform="translate(106.418493, 12.492247)"><g><path d="M 3.96875 -9.875 L 5.3125 -9.875 L 9.125 0 L 6.90625 0 L 6.3125 -1.640625 L 2.96875 -1.640625 L 2.390625 0 L 0.140625 0 Z M 5.65625 -3.453125 L 4.640625 -6.3125 L 3.609375 -3.453125 Z M 5.65625 -3.453125 "/></g></g></g><g fill="#88c057" fill-opacity="1"><g transform="translate(120.030745, 12.492247)"><g><path d="M 0.578125 -4.65625 L 3.984375 -4.65625 L 3.984375 -2.859375 L 0.578125 -2.859375 Z M 0.578125 -4.65625 "/></g></g></g><g fill="#88c057" fill-opacity="1"><g transform="translate(128.929228, 12.492247)"><g><path d="M 1.078125 -9.6875 L 3.203125 -9.6875 L 3.203125 -5.34375 L 6.203125 -9.6875 L 8.640625 -9.6875 L 5.375 -5.078125 L 8.828125 0 L 6.296875 0 L 3.203125 -4.59375 L 3.203125 0 L 1.078125 0 Z M 1.078125 -9.6875 "/></g></g></g><g fill="#88c057" fill-opacity="1"><g transform="translate(142.020938, 12.492247)"><g><path d="M 1.078125 -9.6875 L 4.125 -9.6875 C 4.625 -9.6875 5.085938 -9.609375 5.515625 -9.453125 C 5.941406 -9.304688 6.3125 -9.09375 6.625 -8.8125 C 6.9375 -8.53125 7.175781 -8.195312 7.34375 -7.8125 C 7.519531 -7.425781 7.609375 -7.003906 7.609375 -6.546875 C 7.609375 -5.972656 7.46875 -5.453125 7.1875 -4.984375 C 6.90625 -4.515625 6.519531 -4.148438 6.03125 -3.890625 L 8.3125 0 L 5.84375 0 L 3.96875 -3.40625 L 3.203125 -3.40625 L 3.203125 0 L 1.078125 0 Z M 4.015625 -5.265625 C 4.472656 -5.265625 4.832031 -5.378906 5.09375 -5.609375 C 5.363281 -5.835938 5.5 -6.148438 5.5 -6.546875 C 5.5 -6.941406 5.363281 -7.234375 5.09375 -7.421875 C 4.820312 -7.617188 4.460938 -7.71875 4.015625 -7.71875 L 3.203125 -7.71875 L 3.203125 -5.265625 Z M 4.015625 -5.265625 "/></g></g></g><g fill="#88c057" fill-opacity="1"><g transform="translate(154.881301, 12.492247)"><g><path d="M 1.078125 -9.6875 L 6.625 -9.6875 L 6.625 -7.71875 L 3.203125 -7.71875 L 3.203125 -5.9375 L 5.703125 -5.9375 L 5.703125 -3.953125 L 3.203125 -3.953125 L 3.203125 -1.984375 L 6.703125 -1.984375 L 6.703125 0 L 1.078125 0 Z M 1.078125 -9.6875 "/></g></g></g><g fill="#88c057" fill-opacity="1"><g transform="translate(166.642746, 12.492247)"><g><path d="M 3.6875 0.265625 C 2.9375 0.265625 2.257812 0.0976562 1.65625 -0.234375 C 1.0625 -0.578125 0.582031 -1.066406 0.21875 -1.703125 L 1.6875 -2.9375 C 2.1875 -2.039062 2.847656 -1.59375 3.671875 -1.59375 C 4.035156 -1.59375 4.332031 -1.679688 4.5625 -1.859375 C 4.789062 -2.035156 4.90625 -2.269531 4.90625 -2.5625 C 4.90625 -2.832031 4.789062 -3.066406 4.5625 -3.265625 C 4.34375 -3.460938 3.945312 -3.6875 3.375 -3.9375 C 2.476562 -4.332031 1.820312 -4.769531 1.40625 -5.25 C 1 -5.738281 0.796875 -6.320312 0.796875 -7 C 0.796875 -7.425781 0.875 -7.816406 1.03125 -8.171875 C 1.1875 -8.523438 1.398438 -8.832031 1.671875 -9.09375 C 1.953125 -9.351562 2.285156 -9.550781 2.671875 -9.6875 C 3.054688 -9.820312 3.484375 -9.890625 3.953125 -9.890625 C 5.171875 -9.890625 6.207031 -9.363281 7.0625 -8.3125 L 5.65625 -7.046875 C 5.382812 -7.398438 5.113281 -7.660156 4.84375 -7.828125 C 4.570312 -8.003906 4.273438 -8.09375 3.953125 -8.09375 C 3.628906 -8.09375 3.375 -8.007812 3.1875 -7.84375 C 3 -7.6875 2.90625 -7.472656 2.90625 -7.203125 C 2.90625 -6.898438 3.03125 -6.648438 3.28125 -6.453125 C 3.53125 -6.265625 3.90625 -6.0625 4.40625 -5.84375 C 5.320312 -5.4375 5.984375 -4.984375 6.390625 -4.484375 C 6.804688 -3.992188 7.015625 -3.410156 7.015625 -2.734375 C 7.015625 -2.285156 6.929688 -1.878906 6.765625 -1.515625 C 6.609375 -1.148438 6.382812 -0.832031 6.09375 -0.5625 C 5.800781 -0.300781 5.445312 -0.0976562 5.03125 0.046875 C 4.625 0.191406 4.175781 0.265625 3.6875 0.265625 Z M 3.6875 0.265625 "/></g></g></g><g fill="#88c057" fill-opacity="1"><g transform="translate(178.548788, 12.492247)"><g><path d="M 5.546875 0.203125 C 4.816406 0.203125 4.144531 0.0742188 3.53125 -0.171875 C 2.914062 -0.421875 2.382812 -0.769531 1.9375 -1.21875 C 1.488281 -1.664062 1.132812 -2.195312 0.875 -2.8125 C 0.625 -3.4375 0.5 -4.109375 0.5 -4.828125 C 0.5 -5.554688 0.625 -6.226562 0.875 -6.84375 C 1.132812 -7.457031 1.488281 -7.988281 1.9375 -8.4375 C 2.394531 -8.894531 2.925781 -9.25 3.53125 -9.5 C 4.144531 -9.757812 4.8125 -9.890625 5.53125 -9.890625 C 6.28125 -9.890625 6.976562 -9.742188 7.625 -9.453125 C 8.269531 -9.171875 8.828125 -8.757812 9.296875 -8.21875 L 7.828125 -6.78125 C 7.546875 -7.113281 7.210938 -7.375 6.828125 -7.5625 C 6.453125 -7.75 6.035156 -7.84375 5.578125 -7.84375 C 5.171875 -7.84375 4.789062 -7.765625 4.4375 -7.609375 C 4.09375 -7.460938 3.789062 -7.253906 3.53125 -6.984375 C 3.28125 -6.722656 3.082031 -6.410156 2.9375 -6.046875 C 2.800781 -5.679688 2.734375 -5.285156 2.734375 -4.859375 C 2.734375 -4.421875 2.804688 -4.019531 2.953125 -3.65625 C 3.097656 -3.289062 3.296875 -2.972656 3.546875 -2.703125 C 3.804688 -2.429688 4.113281 -2.222656 4.46875 -2.078125 C 4.820312 -1.929688 5.210938 -1.859375 5.640625 -1.859375 C 6.109375 -1.859375 6.535156 -1.953125 6.921875 -2.140625 C 7.304688 -2.335938 7.632812 -2.597656 7.90625 -2.921875 L 9.375 -1.515625 C 8.914062 -0.960938 8.359375 -0.535156 7.703125 -0.234375 C 7.054688 0.0546875 6.335938 0.203125 5.546875 0.203125 Z M 5.546875 0.203125 "/></g></g></g><g fill="#88c057" fill-opacity="1"><g transform="translate(192.551444, 12.492247)"><g><path d="M 1.078125 -9.6875 L 3.203125 -9.6875 L 3.203125 0 L 1.078125 0 Z M 1.078125 -9.6875 "/></g></g></g><g fill="#88c057" fill-opacity="1"><g transform="translate(201.175191, 12.492247)"><g><path d="M 0.578125 -4.65625 L 3.984375 -4.65625 L 3.984375 -2.859375 L 0.578125 -2.859375 Z M 0.578125 -4.65625 "/></g></g></g><g fill="#88c057" fill-opacity="1"><g transform="translate(210.073675, 12.492247)"><g><path d="M 3.96875 -9.875 L 5.3125 -9.875 L 9.125 0 L 6.90625 0 L 6.3125 -1.640625 L 2.96875 -1.640625 L 2.390625 0 L 0.140625 0 Z M 5.65625 -3.453125 L 4.640625 -6.3125 L 3.609375 -3.453125 Z M 5.65625 -3.453125 "/></g></g></g><g fill="#88c057" fill-opacity="1"><g transform="translate(223.685927, 12.492247)"><g><path d="M 1.078125 -9.875 L 2.171875 -9.875 L 6.15625 -4.609375 L 10.109375 -9.875 L 11.203125 -9.875 L 11.203125 0 L 9.09375 0 L 9.09375 -5.390625 L 6.546875 -2.046875 L 5.71875 -2.046875 L 3.203125 -5.375 L 3.203125 0 L 1.078125 0 Z M 1.078125 -9.875 "/></g></g></g><g fill="#88c057" fill-opacity="1"><g transform="translate(240.305737, 12.492247)"><g><path d="M 1.078125 -9.6875 L 4.015625 -9.6875 C 4.535156 -9.6875 5.015625 -9.601562 5.453125 -9.4375 C 5.898438 -9.28125 6.28125 -9.050781 6.59375 -8.75 C 6.914062 -8.457031 7.164062 -8.113281 7.34375 -7.71875 C 7.519531 -7.320312 7.609375 -6.882812 7.609375 -6.40625 C 7.609375 -5.9375 7.519531 -5.5 7.34375 -5.09375 C 7.164062 -4.695312 6.921875 -4.351562 6.609375 -4.0625 C 6.304688 -3.769531 5.9375 -3.539062 5.5 -3.375 C 5.0625 -3.21875 4.59375 -3.140625 4.09375 -3.140625 L 3.203125 -3.140625 L 3.203125 0 L 1.078125 0 Z M 4.015625 -5.125 C 4.460938 -5.125 4.820312 -5.234375 5.09375 -5.453125 C 5.363281 -5.679688 5.5 -6 5.5 -6.40625 C 5.5 -6.800781 5.363281 -7.117188 5.09375 -7.359375 C 4.820312 -7.597656 4.460938 -7.71875 4.015625 -7.71875 L 3.203125 -7.71875 L 3.203125 -5.125 Z M 4.015625 -5.125 "/></g></g></g><g fill="#88c057" fill-opacity="1"><g transform="translate(252.833543, 12.492247)"><g><path d="M 1.078125 -9.6875 L 3.203125 -9.6875 L 3.203125 -1.984375 L 6.546875 -1.984375 L 6.546875 0 L 1.078125 0 Z M 1.078125 -9.6875 "/></g></g></g><g fill="#88c057" fill-opacity="1"><g transform="translate(264.161209, 12.492247)"><g><path d="M 1.078125 -9.6875 L 3.203125 -9.6875 L 3.203125 0 L 1.078125 0 Z M 1.078125 -9.6875 "/></g></g></g><g fill="#88c057" fill-opacity="1"><g transform="translate(272.784956, 12.492247)"><g><path d="M 1.078125 -9.6875 L 6.546875 -9.6875 L 6.546875 -7.71875 L 3.203125 -7.71875 L 3.203125 -5.515625 L 5.625 -5.515625 L 5.625 -3.53125 L 3.203125 -3.53125 L 3.203125 0 L 1.078125 0 Z M 1.078125 -9.6875 "/></g></g></g><g fill="#88c057" fill-opacity="1"><g transform="translate(284.112623, 12.492247)"><g><path d="M 1.078125 -9.6875 L 3.203125 -9.6875 L 3.203125 0 L 1.078125 0 Z M 1.078125 -9.6875 "/></g></g></g><g fill="#88c057" fill-opacity="1"><g transform="translate(292.73637, 12.492247)"><g><path d="M 1.078125 -9.6875 L 3.203125 -9.6875 L 3.203125 -5.34375 L 6.203125 -9.6875 L 8.640625 -9.6875 L 5.375 -5.078125 L 8.828125 0 L 6.296875 0 L 3.203125 -4.59375 L 3.203125 0 L 1.078125 0 Z M 1.078125 -9.6875 "/></g></g></g><g fill="#88c057" fill-opacity="1"><g transform="translate(305.828068, 12.492247)"><g><path d="M 3.96875 -9.875 L 5.3125 -9.875 L 9.125 0 L 6.90625 0 L 6.3125 -1.640625 L 2.96875 -1.640625 L 2.390625 0 L 0.140625 0 Z M 5.65625 -3.453125 L 4.640625 -6.3125 L 3.609375 -3.453125 Z M 5.65625 -3.453125 "/></g></g></g></g></g></svg>