<svg xmlns="http://www.w3.org/2000/svg" xmlns:xlink="http://www.w3.org/1999/xlink" width="375" viewBox="15 33 375 102" height="102" preserveAspectRatio="xMidYMid meet" version="1.0"><defs><g/><clipPath id="5b1de06456"><path d="M 21.613281 38.875 L 89.667969 38.875 L 89.667969 108.421875 L 21.613281 108.421875 Z M 21.613281 38.875 " clip-rule="nonzero"/></clipPath></defs><g fill="#283e4a" fill-opacity="1"><g transform="translate(28.898227, 108.908533)"><g><path d="M 69.890625 0 L 47.578125 0 L 21.375 -30.171875 L 21.375 0 L 5.171875 0 L 5.171875 -71.109375 L 21.375 -71.109375 L 21.375 -42.0625 L 45.765625 -71.109375 L 65.421875 -71.109375 L 36.796875 -37.40625 Z M 69.890625 0 "/></g></g></g><g fill="#283e4a" fill-opacity="1"><g transform="translate(89.996216, 108.908533)"><g><path d="M 9.34375 -5.25 C 4.4375 -9.625 1.984375 -15.226562 1.984375 -22.0625 C 1.984375 -28.90625 4.539062 -34.519531 9.65625 -38.90625 C 14.769531 -43.300781 21.085938 -45.5 28.609375 -45.5 C 36.023438 -45.5 42.273438 -43.285156 47.359375 -38.859375 C 52.441406 -34.441406 54.984375 -28.84375 54.984375 -22.0625 C 54.984375 -15.28125 52.5 -9.691406 47.53125 -5.296875 C 42.5625 -0.898438 36.253906 1.296875 28.609375 1.296875 C 20.679688 1.296875 14.257812 -0.882812 9.34375 -5.25 Z M 21.15625 -29.5625 C 19.175781 -27.601562 18.1875 -25.101562 18.1875 -22.0625 C 18.1875 -19.019531 19.132812 -16.535156 21.03125 -14.609375 C 22.925781 -12.679688 25.425781 -11.71875 28.53125 -11.71875 C 31.519531 -11.71875 33.972656 -12.691406 35.890625 -14.640625 C 37.816406 -16.597656 38.78125 -19.070312 38.78125 -22.0625 C 38.78125 -25.101562 37.789062 -27.601562 35.8125 -29.5625 C 33.832031 -31.519531 31.40625 -32.5 28.53125 -32.5 C 25.59375 -32.5 23.132812 -31.519531 21.15625 -29.5625 Z M 21.15625 -29.5625 "/></g></g></g><g fill="#283e4a" fill-opacity="1"><g transform="translate(140.236031, 108.908533)"><g><path d="M 8.1875 -5.46875 C 4.050781 -9.976562 1.984375 -15.507812 1.984375 -22.0625 C 1.984375 -28.613281 4.050781 -34.15625 8.1875 -38.6875 C 12.320312 -43.226562 17.578125 -45.5 23.953125 -45.5 C 29.816406 -45.5 34.644531 -43.660156 38.4375 -39.984375 L 38.4375 -44.21875 L 53.6875 -44.21875 L 53.6875 0 L 38.609375 0 L 38.609375 -5 L 38.4375 -5 C 34.644531 -0.800781 29.816406 1.296875 23.953125 1.296875 C 17.578125 1.296875 12.320312 -0.957031 8.1875 -5.46875 Z M 21.15625 -29.5625 C 19.175781 -27.601562 18.1875 -25.101562 18.1875 -22.0625 C 18.1875 -19.019531 19.132812 -16.535156 21.03125 -14.609375 C 22.925781 -12.679688 25.425781 -11.71875 28.53125 -11.71875 C 31.519531 -11.71875 33.972656 -12.691406 35.890625 -14.640625 C 37.816406 -16.597656 38.78125 -19.070312 38.78125 -22.0625 C 38.78125 -25.101562 37.789062 -27.601562 35.8125 -29.5625 C 33.832031 -31.519531 31.40625 -32.5 28.53125 -32.5 C 25.59375 -32.5 23.132812 -31.519531 21.15625 -29.5625 Z M 21.15625 -29.5625 "/></g></g></g><g fill="#283e4a" fill-opacity="1"><g transform="translate(192.371717, 108.908533)"><g><path d="M 28.703125 -33.015625 C 25.828125 -33.015625 23.351562 -31.945312 21.28125 -29.8125 C 19.21875 -27.6875 18.1875 -25.132812 18.1875 -22.15625 C 18.1875 -19.101562 19.21875 -16.515625 21.28125 -14.390625 C 23.351562 -12.265625 25.828125 -11.203125 28.703125 -11.203125 C 30.078125 -11.203125 31.378906 -11.375 32.609375 -11.71875 C 33.847656 -12.0625 34.757812 -12.40625 35.34375 -12.75 L 36.109375 -13.265625 L 41.28125 -2.671875 C 40.882812 -2.378906 40.328125 -2.019531 39.609375 -1.59375 C 38.890625 -1.164062 37.25 -0.578125 34.6875 0.171875 C 32.132812 0.921875 29.390625 1.296875 26.453125 1.296875 C 19.960938 1.296875 14.257812 -0.984375 9.34375 -5.546875 C 4.4375 -10.117188 1.984375 -15.597656 1.984375 -21.984375 C 1.984375 -28.410156 4.4375 -33.9375 9.34375 -38.5625 C 14.257812 -43.1875 19.960938 -45.5 26.453125 -45.5 C 29.390625 -45.5 32.09375 -45.15625 34.5625 -44.46875 C 37.03125 -43.78125 38.78125 -43.09375 39.8125 -42.40625 L 41.28125 -41.375 L 36.109375 -30.9375 C 34.210938 -32.320312 31.742188 -33.015625 28.703125 -33.015625 Z M 28.703125 -33.015625 "/></g></g></g><g fill="#283e4a" fill-opacity="1"><g transform="translate(227.961613, 108.908533)"><g><path d="M 5.171875 0 L 5.171875 -74.125 L 20.421875 -74.125 L 20.421875 -39.5625 L 20.59375 -39.5625 C 24.5625 -43.519531 28.785156 -45.5 33.265625 -45.5 C 35.453125 -45.5 37.617188 -45.210938 39.765625 -44.640625 C 41.921875 -44.066406 43.988281 -43.175781 45.96875 -41.96875 C 47.957031 -40.757812 49.566406 -39.050781 50.796875 -36.84375 C 52.035156 -34.632812 52.65625 -32.0625 52.65625 -29.125 L 52.65625 0 L 37.40625 0 L 37.40625 -25 C 37.40625 -27.289062 36.671875 -29.296875 35.203125 -31.015625 C 33.742188 -32.742188 31.832031 -33.609375 29.46875 -33.609375 C 27.175781 -33.609375 25.09375 -32.71875 23.21875 -30.9375 C 21.351562 -29.15625 20.421875 -27.175781 20.421875 -25 L 20.421875 0 Z M 5.171875 0 "/></g></g></g><g fill="#283e4a" fill-opacity="1"><g transform="translate(278.201439, 108.908533)"><g><path d="M 6.640625 -68.859375 C 8.421875 -70.640625 10.546875 -71.53125 13.015625 -71.53125 C 15.484375 -71.53125 17.609375 -70.640625 19.390625 -68.859375 C 21.171875 -67.078125 22.0625 -64.953125 22.0625 -62.484375 C 22.0625 -60.015625 21.171875 -57.890625 19.390625 -56.109375 C 17.609375 -54.328125 15.484375 -53.4375 13.015625 -53.4375 C 10.546875 -53.4375 8.421875 -54.328125 6.640625 -56.109375 C 4.859375 -57.890625 3.96875 -60.015625 3.96875 -62.484375 C 3.96875 -64.953125 4.859375 -67.078125 6.640625 -68.859375 Z M 5.171875 -44.21875 L 5.171875 0 L 20.421875 0 L 20.421875 -44.21875 Z M 5.171875 -44.21875 "/></g></g></g><g fill="#283e4a" fill-opacity="1"><g transform="translate(297.504062, 108.908533)"><g><path d="M 7.75 -44.21875 L 7.75 -53.609375 C 7.8125 -60.210938 9.363281 -65.5 12.40625 -69.46875 C 15.457031 -73.4375 19.679688 -75.421875 25.078125 -75.421875 C 27.378906 -75.421875 29.578125 -75.085938 31.671875 -74.421875 C 33.765625 -73.765625 35.273438 -73.085938 36.203125 -72.390625 L 37.65625 -71.453125 L 32.328125 -60.671875 C 30.941406 -61.472656 29.414062 -61.875 27.75 -61.875 C 25.851562 -61.875 24.585938 -61.226562 23.953125 -59.9375 C 23.328125 -58.644531 23.015625 -56.390625 23.015625 -53.171875 L 23.015625 -44.21875 L 33.1875 -44.21875 L 33.1875 -32.578125 L 23.015625 -32.578125 L 23.015625 0 L 7.75 0 L 7.75 -32.578125 L 1.375 -32.578125 L 1.375 -44.21875 Z M 7.75 -44.21875 "/></g></g></g><g fill="#283e4a" fill-opacity="1"><g transform="translate(323.097532, 108.908533)"><g><path d="M 38.703125 -44.21875 L 56.28125 -44.21875 L 21.546875 22.40625 L 3.96875 22.40625 L 19.21875 -6.890625 L -1.71875 -44.21875 L 15.859375 -44.21875 L 28.1875 -21.546875 Z M 38.703125 -44.21875 "/></g></g></g><g clip-path="url(#5b1de06456)"><path fill="#88c057" d="M 89.390625 73.140625 L 79.394531 73.140625 C 62.285156 69.4375 58.480469 65.617188 54.777344 48.480469 L 54.777344 38.875 L 53.511719 38.875 L 53.511719 48.582031 C 49.816406 65.632812 45.992188 69.445312 28.914062 73.140625 L 21.621094 73.140625 L 21.621094 74.402344 L 28.914062 74.402344 C 45.992188 78.101562 49.816406 81.910156 53.511719 98.960938 L 53.511719 108.492188 L 54.777344 108.492188 L 54.777344 99.0625 C 58.480469 81.925781 62.285156 78.109375 79.394531 74.402344 L 89.390625 74.402344 Z M 89.390625 73.140625 " fill-opacity="1" fill-rule="nonzero"/></g><g fill="#88c057" fill-opacity="1"><g transform="translate(33.895558, 125.74469)"><g><path d="M 3.359375 0.234375 C 2.671875 0.234375 2.054688 0.0820312 1.515625 -0.21875 C 0.972656 -0.53125 0.535156 -0.976562 0.203125 -1.5625 L 1.546875 -2.671875 C 2.003906 -1.859375 2.601562 -1.453125 3.34375 -1.453125 C 3.675781 -1.453125 3.945312 -1.53125 4.15625 -1.6875 C 4.363281 -1.851562 4.46875 -2.066406 4.46875 -2.328125 C 4.46875 -2.578125 4.363281 -2.789062 4.15625 -2.96875 C 3.957031 -3.15625 3.597656 -3.363281 3.078125 -3.59375 C 2.253906 -3.945312 1.65625 -4.34375 1.28125 -4.78125 C 0.90625 -5.226562 0.71875 -5.757812 0.71875 -6.375 C 0.71875 -6.769531 0.785156 -7.128906 0.921875 -7.453125 C 1.066406 -7.773438 1.265625 -8.050781 1.515625 -8.28125 C 1.773438 -8.519531 2.082031 -8.703125 2.4375 -8.828125 C 2.789062 -8.953125 3.175781 -9.015625 3.59375 -9.015625 C 4.71875 -9.015625 5.664062 -8.535156 6.4375 -7.578125 L 5.15625 -6.421875 C 4.90625 -6.742188 4.65625 -6.984375 4.40625 -7.140625 C 4.164062 -7.296875 3.894531 -7.375 3.59375 -7.375 C 3.3125 -7.375 3.082031 -7.300781 2.90625 -7.15625 C 2.738281 -7.007812 2.65625 -6.8125 2.65625 -6.5625 C 2.65625 -6.289062 2.769531 -6.066406 3 -5.890625 C 3.226562 -5.710938 3.566406 -5.523438 4.015625 -5.328125 C 4.859375 -4.960938 5.460938 -4.550781 5.828125 -4.09375 C 6.203125 -3.644531 6.390625 -3.113281 6.390625 -2.5 C 6.390625 -2.09375 6.316406 -1.722656 6.171875 -1.390625 C 6.023438 -1.054688 5.816406 -0.765625 5.546875 -0.515625 C 5.285156 -0.273438 4.96875 -0.09375 4.59375 0.03125 C 4.21875 0.164062 3.804688 0.234375 3.359375 0.234375 Z M 3.359375 0.234375 "/></g></g></g><g fill="#88c057" fill-opacity="1"><g transform="translate(44.748609, 125.74469)"><g><path d="M 0.984375 -8.828125 L 6.046875 -8.828125 L 6.046875 -7.03125 L 2.921875 -7.03125 L 2.921875 -5.40625 L 5.203125 -5.40625 L 5.203125 -3.59375 L 2.921875 -3.59375 L 2.921875 -1.8125 L 6.109375 -1.8125 L 6.109375 0 L 0.984375 0 Z M 0.984375 -8.828125 "/></g></g></g><g fill="#88c057" fill-opacity="1"><g transform="translate(55.469852, 125.74469)"><g><path d="M 0.984375 -9 L 1.984375 -9 L 5.625 -4.203125 L 9.21875 -9 L 10.203125 -9 L 10.203125 0 L 8.28125 0 L 8.28125 -4.921875 L 5.96875 -1.875 L 5.203125 -1.875 L 2.921875 -4.90625 L 2.921875 0 L 0.984375 0 Z M 0.984375 -9 "/></g></g></g><g fill="#88c057" fill-opacity="1"><g transform="translate(70.619777, 125.74469)"><g><path d="M 0.984375 -8.828125 L 3.671875 -8.828125 C 4.140625 -8.828125 4.570312 -8.753906 4.96875 -8.609375 C 5.375 -8.460938 5.722656 -8.253906 6.015625 -7.984375 C 6.304688 -7.710938 6.53125 -7.394531 6.6875 -7.03125 C 6.851562 -6.664062 6.9375 -6.269531 6.9375 -5.84375 C 6.9375 -5.414062 6.851562 -5.015625 6.6875 -4.640625 C 6.53125 -4.273438 6.3125 -3.960938 6.03125 -3.703125 C 5.75 -3.441406 5.410156 -3.234375 5.015625 -3.078125 C 4.617188 -2.929688 4.191406 -2.859375 3.734375 -2.859375 L 2.921875 -2.859375 L 2.921875 0 L 0.984375 0 Z M 3.671875 -4.671875 C 4.066406 -4.671875 4.390625 -4.769531 4.640625 -4.96875 C 4.890625 -5.175781 5.015625 -5.46875 5.015625 -5.84375 C 5.015625 -6.195312 4.890625 -6.484375 4.640625 -6.703125 C 4.390625 -6.921875 4.066406 -7.03125 3.671875 -7.03125 L 2.921875 -7.03125 L 2.921875 -4.671875 Z M 3.671875 -4.671875 "/></g></g></g><g fill="#88c057" fill-opacity="1"><g transform="translate(82.039591, 125.74469)"><g><path d="M 0.984375 -8.828125 L 2.921875 -8.828125 L 2.921875 -1.8125 L 5.96875 -1.8125 L 5.96875 0 L 0.984375 0 Z M 0.984375 -8.828125 "/></g></g></g><g fill="#88c057" fill-opacity="1"><g transform="translate(92.365419, 125.74469)"><g><path d="M 0.984375 -8.828125 L 2.921875 -8.828125 L 2.921875 0 L 0.984375 0 Z M 0.984375 -8.828125 "/></g></g></g><g fill="#88c057" fill-opacity="1"><g transform="translate(100.226467, 125.74469)"><g><path d="M 0.984375 -8.828125 L 5.96875 -8.828125 L 5.96875 -7.03125 L 2.921875 -7.03125 L 2.921875 -5.03125 L 5.125 -5.03125 L 5.125 -3.21875 L 2.921875 -3.21875 L 2.921875 0 L 0.984375 0 Z M 0.984375 -8.828125 "/></g></g></g><g fill="#88c057" fill-opacity="1"><g transform="translate(110.552295, 125.74469)"><g><path d="M 0.984375 -8.828125 L 2.921875 -8.828125 L 2.921875 0 L 0.984375 0 Z M 0.984375 -8.828125 "/></g></g></g><g fill="#88c057" fill-opacity="1"><g transform="translate(118.413344, 125.74469)"><g><path d="M 0.984375 -8.828125 L 2.921875 -8.828125 L 2.921875 -4.859375 L 5.65625 -8.828125 L 7.875 -8.828125 L 4.90625 -4.625 L 8.046875 0 L 5.734375 0 L 2.921875 -4.1875 L 2.921875 0 L 0.984375 0 Z M 0.984375 -8.828125 "/></g></g></g><g fill="#88c057" fill-opacity="1"><g transform="translate(130.347201, 125.74469)"><g><path d="M 3.609375 -9 L 4.84375 -9 L 8.328125 0 L 6.296875 0 L 5.75 -1.484375 L 2.703125 -1.484375 L 2.171875 0 L 0.125 0 Z M 5.15625 -3.15625 L 4.234375 -5.75 L 3.296875 -3.15625 Z M 5.15625 -3.15625 "/></g></g></g><g fill="#88c057" fill-opacity="1"><g transform="translate(142.755562, 125.74469)"><g><path d="M 0.53125 -4.25 L 3.625 -4.25 L 3.625 -2.609375 L 0.53125 -2.609375 Z M 0.53125 -4.25 "/></g></g></g><g fill="#88c057" fill-opacity="1"><g transform="translate(150.867048, 125.74469)"><g><path d="M 0.984375 -8.828125 L 2.921875 -8.828125 L 2.921875 -4.859375 L 5.65625 -8.828125 L 7.875 -8.828125 L 4.90625 -4.625 L 8.046875 0 L 5.734375 0 L 2.921875 -4.1875 L 2.921875 0 L 0.984375 0 Z M 0.984375 -8.828125 "/></g></g></g><g fill="#88c057" fill-opacity="1"><g transform="translate(162.800905, 125.74469)"><g><path d="M 0.984375 -8.828125 L 3.765625 -8.828125 C 4.210938 -8.828125 4.632812 -8.753906 5.03125 -8.609375 C 5.425781 -8.472656 5.765625 -8.28125 6.046875 -8.03125 C 6.328125 -7.78125 6.546875 -7.476562 6.703125 -7.125 C 6.859375 -6.769531 6.9375 -6.382812 6.9375 -5.96875 C 6.9375 -5.445312 6.804688 -4.972656 6.546875 -4.546875 C 6.296875 -4.117188 5.945312 -3.785156 5.5 -3.546875 L 7.5625 0 L 5.328125 0 L 3.609375 -3.09375 L 2.921875 -3.09375 L 2.921875 0 L 0.984375 0 Z M 3.671875 -4.796875 C 4.078125 -4.796875 4.398438 -4.898438 4.640625 -5.109375 C 4.890625 -5.316406 5.015625 -5.597656 5.015625 -5.953125 C 5.015625 -6.316406 4.890625 -6.585938 4.640625 -6.765625 C 4.390625 -6.941406 4.066406 -7.03125 3.671875 -7.03125 L 2.921875 -7.03125 L 2.921875 -4.796875 Z M 3.671875 -4.796875 "/></g></g></g><g fill="#88c057" fill-opacity="1"><g transform="translate(174.523875, 125.74469)"><g><path d="M 0.984375 -8.828125 L 6.046875 -8.828125 L 6.046875 -7.03125 L 2.921875 -7.03125 L 2.921875 -5.40625 L 5.203125 -5.40625 L 5.203125 -3.59375 L 2.921875 -3.59375 L 2.921875 -1.8125 L 6.109375 -1.8125 L 6.109375 0 L 0.984375 0 Z M 0.984375 -8.828125 "/></g></g></g><g fill="#88c057" fill-opacity="1"><g transform="translate(185.245117, 125.74469)"><g><path d="M 3.359375 0.234375 C 2.671875 0.234375 2.054688 0.0820312 1.515625 -0.21875 C 0.972656 -0.53125 0.535156 -0.976562 0.203125 -1.5625 L 1.546875 -2.671875 C 2.003906 -1.859375 2.601562 -1.453125 3.34375 -1.453125 C 3.675781 -1.453125 3.945312 -1.53125 4.15625 -1.6875 C 4.363281 -1.851562 4.46875 -2.066406 4.46875 -2.328125 C 4.46875 -2.578125 4.363281 -2.789062 4.15625 -2.96875 C 3.957031 -3.15625 3.597656 -3.363281 3.078125 -3.59375 C 2.253906 -3.945312 1.65625 -4.34375 1.28125 -4.78125 C 0.90625 -5.226562 0.71875 -5.757812 0.71875 -6.375 C 0.71875 -6.769531 0.785156 -7.128906 0.921875 -7.453125 C 1.066406 -7.773438 1.265625 -8.050781 1.515625 -8.28125 C 1.773438 -8.519531 2.082031 -8.703125 2.4375 -8.828125 C 2.789062 -8.953125 3.175781 -9.015625 3.59375 -9.015625 C 4.71875 -9.015625 5.664062 -8.535156 6.4375 -7.578125 L 5.15625 -6.421875 C 4.90625 -6.742188 4.65625 -6.984375 4.40625 -7.140625 C 4.164062 -7.296875 3.894531 -7.375 3.59375 -7.375 C 3.3125 -7.375 3.082031 -7.300781 2.90625 -7.15625 C 2.738281 -7.007812 2.65625 -6.8125 2.65625 -6.5625 C 2.65625 -6.289062 2.769531 -6.066406 3 -5.890625 C 3.226562 -5.710938 3.566406 -5.523438 4.015625 -5.328125 C 4.859375 -4.960938 5.460938 -4.550781 5.828125 -4.09375 C 6.203125 -3.644531 6.390625 -3.113281 6.390625 -2.5 C 6.390625 -2.09375 6.316406 -1.722656 6.171875 -1.390625 C 6.023438 -1.054688 5.816406 -0.765625 5.546875 -0.515625 C 5.285156 -0.273438 4.96875 -0.09375 4.59375 0.03125 C 4.21875 0.164062 3.804688 0.234375 3.359375 0.234375 Z M 3.359375 0.234375 "/></g></g></g><g fill="#88c057" fill-opacity="1"><g transform="translate(196.098169, 125.74469)"><g><path d="M 5.046875 0.1875 C 4.390625 0.1875 3.78125 0.0703125 3.21875 -0.15625 C 2.65625 -0.382812 2.164062 -0.703125 1.75 -1.109375 C 1.34375 -1.523438 1.023438 -2.015625 0.796875 -2.578125 C 0.578125 -3.140625 0.46875 -3.75 0.46875 -4.40625 C 0.46875 -5.0625 0.582031 -5.671875 0.8125 -6.234375 C 1.039062 -6.796875 1.359375 -7.285156 1.765625 -7.703125 C 2.179688 -8.117188 2.664062 -8.441406 3.21875 -8.671875 C 3.78125 -8.898438 4.382812 -9.015625 5.03125 -9.015625 C 5.71875 -9.015625 6.351562 -8.882812 6.9375 -8.625 C 7.53125 -8.363281 8.046875 -7.984375 8.484375 -7.484375 L 7.140625 -6.1875 C 6.878906 -6.488281 6.570312 -6.722656 6.21875 -6.890625 C 5.875 -7.054688 5.5 -7.140625 5.09375 -7.140625 C 4.707031 -7.140625 4.359375 -7.070312 4.046875 -6.9375 C 3.734375 -6.800781 3.457031 -6.613281 3.21875 -6.375 C 2.988281 -6.132812 2.8125 -5.847656 2.6875 -5.515625 C 2.5625 -5.179688 2.5 -4.820312 2.5 -4.4375 C 2.5 -4.039062 2.5625 -3.671875 2.6875 -3.328125 C 2.820312 -2.992188 3.003906 -2.703125 3.234375 -2.453125 C 3.472656 -2.210938 3.753906 -2.023438 4.078125 -1.890625 C 4.398438 -1.753906 4.753906 -1.6875 5.140625 -1.6875 C 5.566406 -1.6875 5.953125 -1.773438 6.296875 -1.953125 C 6.648438 -2.128906 6.953125 -2.363281 7.203125 -2.65625 L 8.546875 -1.390625 C 8.117188 -0.890625 7.609375 -0.5 7.015625 -0.21875 C 6.421875 0.0507812 5.765625 0.1875 5.046875 0.1875 Z M 5.046875 0.1875 "/></g></g></g><g fill="#88c057" fill-opacity="1"><g transform="translate(208.862405, 125.74469)"><g><path d="M 0.984375 -8.828125 L 2.921875 -8.828125 L 2.921875 0 L 0.984375 0 Z M 0.984375 -8.828125 "/></g></g></g><g fill="#88c057" fill-opacity="1"><g transform="translate(216.723454, 125.74469)"><g><path d="M 0.53125 -4.25 L 3.625 -4.25 L 3.625 -2.609375 L 0.53125 -2.609375 Z M 0.53125 -4.25 "/></g></g></g><g fill="#88c057" fill-opacity="1"><g transform="translate(224.83494, 125.74469)"><g><path d="M 3.609375 -9 L 4.84375 -9 L 8.328125 0 L 6.296875 0 L 5.75 -1.484375 L 2.703125 -1.484375 L 2.171875 0 L 0.125 0 Z M 5.15625 -3.15625 L 4.234375 -5.75 L 3.296875 -3.15625 Z M 5.15625 -3.15625 "/></g></g></g><g fill="#88c057" fill-opacity="1"><g transform="translate(237.243301, 125.74469)"><g><path d="M 0.984375 -9 L 1.984375 -9 L 5.625 -4.203125 L 9.21875 -9 L 10.203125 -9 L 10.203125 0 L 8.28125 0 L 8.28125 -4.921875 L 5.96875 -1.875 L 5.203125 -1.875 L 2.921875 -4.90625 L 2.921875 0 L 0.984375 0 Z M 0.984375 -9 "/></g></g></g><g fill="#88c057" fill-opacity="1"><g transform="translate(252.393227, 125.74469)"><g><path d="M 0.984375 -8.828125 L 3.671875 -8.828125 C 4.140625 -8.828125 4.570312 -8.753906 4.96875 -8.609375 C 5.375 -8.460938 5.722656 -8.253906 6.015625 -7.984375 C 6.304688 -7.710938 6.53125 -7.394531 6.6875 -7.03125 C 6.851562 -6.664062 6.9375 -6.269531 6.9375 -5.84375 C 6.9375 -5.414062 6.851562 -5.015625 6.6875 -4.640625 C 6.53125 -4.273438 6.3125 -3.960938 6.03125 -3.703125 C 5.75 -3.441406 5.410156 -3.234375 5.015625 -3.078125 C 4.617188 -2.929688 4.191406 -2.859375 3.734375 -2.859375 L 2.921875 -2.859375 L 2.921875 0 L 0.984375 0 Z M 3.671875 -4.671875 C 4.066406 -4.671875 4.390625 -4.769531 4.640625 -4.96875 C 4.890625 -5.175781 5.015625 -5.46875 5.015625 -5.84375 C 5.015625 -6.195312 4.890625 -6.484375 4.640625 -6.703125 C 4.390625 -6.921875 4.066406 -7.03125 3.671875 -7.03125 L 2.921875 -7.03125 L 2.921875 -4.671875 Z M 3.671875 -4.671875 "/></g></g></g><g fill="#88c057" fill-opacity="1"><g transform="translate(263.813052, 125.74469)"><g><path d="M 0.984375 -8.828125 L 2.921875 -8.828125 L 2.921875 -1.8125 L 5.96875 -1.8125 L 5.96875 0 L 0.984375 0 Z M 0.984375 -8.828125 "/></g></g></g><g fill="#88c057" fill-opacity="1"><g transform="translate(274.13888, 125.74469)"><g><path d="M 0.984375 -8.828125 L 2.921875 -8.828125 L 2.921875 0 L 0.984375 0 Z M 0.984375 -8.828125 "/></g></g></g><g fill="#88c057" fill-opacity="1"><g transform="translate(281.999929, 125.74469)"><g><path d="M 0.984375 -8.828125 L 5.96875 -8.828125 L 5.96875 -7.03125 L 2.921875 -7.03125 L 2.921875 -5.03125 L 5.125 -5.03125 L 5.125 -3.21875 L 2.921875 -3.21875 L 2.921875 0 L 0.984375 0 Z M 0.984375 -8.828125 "/></g></g></g><g fill="#88c057" fill-opacity="1"><g transform="translate(292.325757, 125.74469)"><g><path d="M 0.984375 -8.828125 L 2.921875 -8.828125 L 2.921875 0 L 0.984375 0 Z M 0.984375 -8.828125 "/></g></g></g><g fill="#88c057" fill-opacity="1"><g transform="translate(300.186805, 125.74469)"><g><path d="M 0.984375 -8.828125 L 2.921875 -8.828125 L 2.921875 -4.859375 L 5.65625 -8.828125 L 7.875 -8.828125 L 4.90625 -4.625 L 8.046875 0 L 5.734375 0 L 2.921875 -4.1875 L 2.921875 0 L 0.984375 0 Z M 0.984375 -8.828125 "/></g></g></g><g fill="#88c057" fill-opacity="1"><g transform="translate(312.120651, 125.74469)"><g><path d="M 3.609375 -9 L 4.84375 -9 L 8.328125 0 L 6.296875 0 L 5.75 -1.484375 L 2.703125 -1.484375 L 2.171875 0 L 0.125 0 Z M 5.15625 -3.15625 L 4.234375 -5.75 L 3.296875 -3.15625 Z M 5.15625 -3.15625 "/></g></g></g></svg>